<svg xmlns="http://www.w3.org/2000/svg" viewBox="0 0 1200 800" role="img" aria-labelledby="title desc">
  <title id="title">Placeholder image for pickleball tournament awards</title>
  <desc id="desc">Dark studio-style placeholder showing custom pickleball award forms on a work surface.</desc>
  <rect width="1200" height="800" fill="#171817"/>
  <rect x="76" y="78" width="1048" height="644" rx="18" fill="#20221f"/>
  <rect x="116" y="536" width="968" height="94" fill="#111211" opacity=".72"/>
  <path d="M346 214c86 0 156 70 156 156 0 58-32 109-79 136v92H269v-92c-47-27-79-78-79-136 0-86 70-156 156-156z" fill="#62684c"/>
  <circle cx="308" cy="344" r="11" fill="#d8cfbd"/>
  <circle cx="360" cy="315" r="11" fill="#d8cfbd"/>
  <circle cx="389" cy="376" r="11" fill="#d8cfbd"/>
  <path d="M660 190h170l60 408H600z" fill="#b08a4a"/>
  <path d="M686 242h112l38 270H646z" fill="#272925"/>
  <rect x="242" y="598" width="680" height="22" rx="11" fill="#d8cfbd" opacity=".16"/>
  <text x="600" y="678" text-anchor="middle" font-family="Arial, sans-serif" font-size="36" fill="#d8cfbd">Pickleball Tournament Awards</text>
</svg>
